<?xml version="1.0" encoding="UTF-8"?>
<svg version="1.1" xmlns="http://www.w3.org/2000/svg" width="512" height="512">
<path d="M0 0 C0.46857422 0.44279297 0.93714844 0.88558594 1.41992188 1.34179688 C31.25985491 29.62958775 51.67337977 71.10147262 53.12255859 112.5012207 C55.12649559 211.2831695 5.16733186 302.96933949 -53 380 C-53.43376953 380.57572754 -53.86753906 381.15145508 -54.31445312 381.74462891 C-57.17328216 385.52513924 -60.07944412 389.26688883 -63 393 C-63.89219415 394.15083467 -64.78411363 395.30188232 -65.67578125 396.453125 C-71.08507327 403.41355455 -76.65228782 410.20896851 -82.37890625 416.91015625 C-84.82303334 419.77577694 -87.19695734 422.69405522 -89.5625 425.625 C-93.43288868 430.38163152 -97.50023354 434.92210461 -101.65234375 439.43359375 C-103.70324098 441.67558956 -105.70477533 443.94791029 -107.6875 446.25 C-110.95237054 450.01237462 -114.43023917 453.5278922 -118 457 C-126.58462832 453.40827045 -133.07449964 443.97047838 -139 437 C-139.85980469 436.00613281 -140.71960938 435.01226562 -141.60546875 433.98828125 C-153.61437716 420.09721324 -165.2399391 405.9404111 -176.28759766 391.27148438 C-178.10644734 388.85879868 -179.93394148 386.45280291 -181.76171875 384.046875 C-189.46178637 373.88146049 -196.89224246 363.5871951 -204 353 C-204.82533469 351.78112394 -205.65085399 350.56237285 -206.4765625 349.34375 C-217.73406257 332.66406977 -228.23358573 315.59445625 -238 298 C-238.84763916 296.47729492 -238.84763916 296.47729492 -239.71240234 294.92382812 C-273.09212338 234.70942939 -303.6253724 159.14500344 -288 89 C-287.83371094 88.22769043 -287.66742188 87.45538086 -287.49609375 86.65966797 C-281.2184936 58.30002804 -267.94399998 31.52029631 -248.078125 10.23046875 C-246.16973109 8.18217378 -244.36375274 6.07964403 -242.5625 3.9375 C-214.85042907 -27.6340146 -170.4764571 -45.05144108 -129.375 -47.8125 C-81.32625975 -50.13911932 -34.7236227 -33.37948247 0 0 Z " fill="#41B3E2" transform="translate(375,51)"/>
<path d="M0 0 C6.48262336 5.35307535 11.83109857 11.25611704 16.86328125 18.00878906 C17.74886719 19.12060547 17.74886719 19.12060547 18.65234375 20.25488281 C30.2954694 35.592973 38.45069945 56.64691464 38.86328125 76.00878906 C38.90195312 77.21664062 38.940625 78.42449219 38.98046875 79.66894531 C39.58561179 106.47743266 30.94806475 132.25265615 13.86328125 153.00878906 C12.79787109 154.30429687 12.79787109 154.30429687 11.7109375 155.62597656 C-5.75119602 175.89847154 -31.38416495 189.65483924 -58.13671875 192.00878906 C-88.21757914 193.46476792 -117.0750745 187.58810355 -140.13671875 167.00878906 C-140.94109375 166.34621094 -141.74546875 165.68363281 -142.57421875 165.00097656 C-164.49722318 146.43493219 -175.69789107 120.07207924 -179.13671875 92.00878906 C-180.58902955 60.39569827 -170.75083464 33.59083206 -150.51171875 9.57128906 C-136.69710723 -5.52245315 -117.81755201 -16.57374753 -98.13671875 -21.99121094 C-97.16734375 -22.28898437 -96.19796875 -22.58675781 -95.19921875 -22.89355469 C-61.77553406 -31.78196103 -26.34702235 -21.07459643 0 0 Z " fill="#EDF2F4" transform="translate(326.13671875,91.9912109375)"/>
<path d="M0 0 C3.55842227 0.00314391 7.11599713 -0.02032556 10.67431641 -0.0456543 C22.35074318 -0.07866764 33.86111446 0.30804279 45.46728516 1.64770508 C46.50127441 1.76417892 47.53526367 1.88065277 48.60058594 2.00065613 C55.06833194 2.8348324 60.12764674 3.79530573 64.84887695 8.62329102 C66.74633387 11.55357457 67.61820915 14.01902479 68.48681641 17.39379883 C68.96151367 19.1359668 68.96151367 19.1359668 69.44580078 20.91333008 C70.08053264 23.33074064 70.70824618 25.75000586 71.32861328 28.17114258 C74.24241397 38.78277085 79.0609428 45.50079984 87.34228516 52.56567383 C95.34305574 59.40432131 95.34305574 59.40432131 95.7578125 64.24926758 C95.73542015 66.57807171 95.59303938 68.8694134 95.40478516 71.19067383 C95.34653564 72.02985352 95.28828613 72.8690332 95.22827148 73.73364258 C95.04086461 76.26375535 94.82324881 78.78919369 94.59228516 81.31567383 C94.52879883 82.03271484 94.4653125 82.74975586 94.39990234 83.48852539 C93.65098208 91.44244267 92.8111236 100.33942463 88.59228516 107.31567383 C86.51757812 107.93920898 86.51757812 107.93920898 84.59228516 108.31567383 C84.59752197 108.91629639 84.60275879 109.51691895 84.6081543 110.13574219 C84.62886529 112.84154221 84.64192641 115.5473256 84.65478516 118.25317383 C84.66316406 119.19870117 84.67154297 120.14422852 84.68017578 121.1184082 C84.68339844 122.0175293 84.68662109 122.91665039 84.68994141 123.84301758 C84.69517822 124.67567139 84.70041504 125.5083252 84.70581055 126.36621094 C84.59228516 128.31567383 84.59228516 128.31567383 83.59228516 129.31567383 C80.12019709 129.56666306 76.63487896 129.50089479 73.15478516 129.50317383 C72.17445313 129.51541992 71.19412109 129.52766602 70.18408203 129.5402832 C69.24757813 129.5422168 68.31107422 129.54415039 67.34619141 129.54614258 C66.05177124 129.55230591 66.05177124 129.55230591 64.73120117 129.55859375 C62.59228516 129.31567383 62.59228516 129.31567383 60.59228516 127.31567383 C60.59228516 121.04567383 60.59228516 114.77567383 60.59228516 108.31567383 C24.62228516 108.31567383 -11.34771484 108.31567383 -48.40771484 108.31567383 C-48.40771484 114.58567383 -48.40771484 120.85567383 -48.40771484 127.31567383 C-48.73771484 127.97567383 -49.06771484 128.63567383 -49.40771484 129.31567383 C-52.86597826 129.37356389 -56.32411778 129.40923204 -59.78271484 129.44067383 C-60.76755859 129.45743164 -61.75240234 129.47418945 -62.76708984 129.49145508 C-63.70810547 129.49790039 -64.64912109 129.5043457 -65.61865234 129.51098633 C-66.48796387 129.52145996 -67.35727539 129.53193359 -68.25292969 129.54272461 C-70.40771484 129.31567383 -70.40771484 129.31567383 -72.40771484 127.31567383 C-72.67895508 125.36376953 -72.67895508 125.36376953 -72.71630859 122.99145508 C-72.74144531 122.12713867 -72.76658203 121.26282227 -72.79248047 120.37231445 C-72.82726015 118.56248301 -72.85858753 116.75258147 -72.88623047 114.94262695 C-73.05621555 109.3414112 -73.98412054 105.45296849 -76.40771484 100.31567383 C-78.25986073 92.85168422 -79.93576638 84.99794605 -80.40771484 77.31567383 C-80.49537109 76.0652832 -80.58302734 74.81489258 -80.67333984 73.52661133 C-81.28147189 61.27608195 -81.28147189 61.27608195 -77.90771484 57.25317383 C-76.25537109 55.74536133 -76.25537109 55.74536133 -74.40771484 54.31567383 C-73.04823528 53.17614905 -71.6942218 52.0300773 -70.34521484 50.87817383 C-69.71486328 50.38446289 -69.08451172 49.89075195 -68.43505859 49.38208008 C-62.57655348 43.41069433 -60.50316539 36.99262263 -58.90771484 28.94067383 C-55.25669755 12.2633484 -55.25669755 12.2633484 -48.97021484 5.81567383 C-35.33023266 -2.16870599 -15.20392478 -0.02796743 0 0 Z " fill="#F0786B" transform="translate(249.40771484375,110.684326171875)"/>
<path d="M0 0 C1.37422758 -0.00135128 2.7484547 -0.00329565 4.12268066 -0.00579834 C6.98694461 -0.00872786 9.85108284 -0.00452264 12.71533203 0.00488281 C16.35966249 0.01627611 20.0036982 0.00970489 23.64801788 -0.00226212 C26.48099937 -0.00953987 29.31391266 -0.00716587 32.14689636 -0.00200653 C34.13524571 -0.00005138 36.12359788 -0.00605238 38.11193848 -0.01226807 C53.28983058 0.06563493 53.28983058 0.06563493 58.59375 2.265625 C62.21372587 6.36722926 63.31958889 11.04983271 64.84375 16.203125 C65.12476563 17.09708984 65.40578125 17.99105469 65.6953125 18.91210938 C66.08589844 20.21438477 66.08589844 20.21438477 66.484375 21.54296875 C66.72188477 22.32921631 66.95939453 23.11546387 67.20410156 23.92553711 C67.66336605 26.6837139 67.38991409 28.59410814 66.59375 31.265625 C63.95003489 33.90934011 62.01091671 33.51549606 58.41287231 33.54779053 C57.54580658 33.54531311 56.67874084 33.54283569 55.78540039 33.5402832 C54.41693718 33.5479496 54.41693718 33.5479496 53.02082825 33.55577087 C49.99428818 33.56971177 46.96797468 33.56870672 43.94140625 33.56640625 C41.8439475 33.57029074 39.74648953 33.5746249 37.64903259 33.57939148 C33.24817355 33.5868634 28.84739471 33.58655541 24.4465332 33.58129883 C18.79914612 33.5755033 13.15208691 33.59243263 7.50475407 33.6156435 C3.17168753 33.63035573 -1.16129959 33.63125596 -5.49438667 33.62813377 C-7.57685559 33.62864826 -9.65932881 33.6339098 -11.74177361 33.64394569 C-14.65090276 33.65624399 -17.55938748 33.64955817 -20.46850586 33.63793945 C-21.33354736 33.64558319 -22.19858887 33.65322693 -23.08984375 33.66110229 C-28.96302059 33.60909754 -28.96302059 33.60909754 -31.16100407 31.90581036 C-32.40625 30.265625 -32.40625 30.265625 -32.24609375 27.6484375 C-31.20679993 23.46225868 -30.1308688 19.2944374 -28.96875 15.140625 C-28.75154297 14.34269531 -28.53433594 13.54476562 -28.31054688 12.72265625 C-28.09591797 11.95050781 -27.88128906 11.17835938 -27.66015625 10.3828125 C-27.46752197 9.68784668 -27.2748877 8.99288086 -27.07641602 8.27685547 C-26.34142227 6.07107095 -25.64442362 4.24259074 -24.40625 2.265625 C-17.099135 -0.92300774 -7.78188818 -0.02432672 0 0 Z " fill="#DBDCDD" transform="translate(238.40625,124.734375)"/>
<path d="M0 0 C0.46857422 0.44279297 0.93714844 0.88558594 1.41992188 1.34179688 C30.68315201 29.0828824 50.0285336 68.63281945 53 109 C53.06173791 111.3534492 53.0872803 113.70837157 53.0625 116.0625 C53.05347656 117.18785156 53.04445313 118.31320313 53.03515625 119.47265625 C53.01775391 120.72369141 53.01775391 120.72369141 53 122 C52.67 122 52.34 122 52 122 C51.93530518 121.37770508 51.87061035 120.75541016 51.80395508 120.11425781 C50.26707346 105.73485041 48.11181141 91.87773355 44 78 C43.79036621 77.28328125 43.58073242 76.5665625 43.36474609 75.828125 C36.0470776 51.49222979 22.12742467 29.49555303 4.40087891 11.43164062 C3.07781515 10.07952389 1.77832477 8.70445603 0.48046875 7.328125 C-9.39936607 -2.95073385 -20.677678 -10.90750071 -33 -18 C-33.85368164 -18.49862549 -33.85368164 -18.49862549 -34.72460938 -19.00732422 C-47.93373306 -26.66377798 -61.98385273 -31.79731985 -76.6875 -35.8125 C-77.38584961 -36.00739014 -78.08419922 -36.20228027 -78.80371094 -36.40307617 C-91.26663443 -39.62091566 -104.04153812 -40.33662756 -116.85449219 -40.26074219 C-118.99963613 -40.25000182 -121.14394319 -40.26073292 -123.2890625 -40.2734375 C-136.28220955 -40.28770021 -149.13241554 -39.12355208 -161.75 -35.875 C-162.57798096 -35.66327148 -163.40596191 -35.45154297 -164.2590332 -35.23339844 C-185.66113768 -29.49279812 -205.47901651 -19.4831807 -223 -6 C-223.91910156 -5.30519531 -224.83820313 -4.61039063 -225.78515625 -3.89453125 C-260.30852101 23.20554742 -278.55393161 59.95740236 -288 102 C-288.33 102 -288.66 102 -289 102 C-289.24943444 95.66143071 -288.39318987 90.14483802 -286.875 84 C-286.64981689 83.07936768 -286.42463379 82.15873535 -286.19262695 81.21020508 C-275.07228636 37.24349678 -246.12426849 -0.12828249 -207.6875 -23.625 C-141.46079219 -62.86378856 -55.54838505 -53.39812498 0 0 Z " fill="#55C6EB" transform="translate(375,51)"/>
<path d="M0 0 C1.01122421 -0.00630432 2.02244843 -0.01260864 3.0643158 -0.019104 C4.16014481 -0.01505554 5.25597382 -0.01100708 6.38500977 -0.00683594 C7.50706314 -0.00874939 8.62911652 -0.01066284 9.78517151 -0.01263428 C12.16163354 -0.01399722 14.53810299 -0.01029323 16.91455078 -0.00195312 C20.55786849 0.00873465 24.20069196 -0.00183986 27.84399414 -0.01464844 C30.14933377 -0.01332667 32.4546731 -0.01076391 34.76000977 -0.00683594 C36.40071693 -0.01290863 36.40071693 -0.01290863 38.0745697 -0.019104 C39.59613426 -0.00964752 39.59613426 -0.00964752 41.1484375 0 C42.04175278 0.00159119 42.93506805 0.00318237 43.85545349 0.00482178 C46.13891602 0.25878906 46.13891602 0.25878906 49.13891602 2.25878906 C49.51391602 4.69628906 49.51391602 4.69628906 49.13891602 7.25878906 C47.50783603 9.4490206 46.61828951 10.17721846 43.90014648 10.63973999 C43.0276123 10.64212677 42.15507812 10.64451355 41.25610352 10.64697266 C40.26497559 10.65642914 39.27384766 10.66588562 38.25268555 10.67562866 C37.1838916 10.66955597 36.11509766 10.66348328 35.01391602 10.65722656 C33.36625244 10.66153183 33.36625244 10.66153183 31.68530273 10.66592407 C29.36189255 10.66796642 27.03846523 10.66242469 24.71508789 10.64990234 C21.1528489 10.63385184 17.5917446 10.64974604 14.02954102 10.66894531 C11.77433017 10.66696291 9.51912003 10.6631193 7.26391602 10.65722656 C6.19512207 10.66329926 5.12632812 10.66937195 4.02514648 10.67562866 C2.53845459 10.66144394 2.53845459 10.66144394 1.02172852 10.64697266 C0.14919434 10.64458588 -0.72333984 10.6421991 -1.62231445 10.63973999 C-4.33983353 10.17732463 -5.23342304 9.45146007 -6.86108398 7.25878906 C-7.17358398 4.69628906 -7.17358398 4.69628906 -6.86108398 2.25878906 C-4.33777936 -0.26451557 -3.49135205 0.00622439 0 0 Z " fill="#D55A49" transform="translate(234.861083984375,195.7412109375)"/>
<path d="M0 0 C7.92 0 15.84 0 24 0 C24.020625 3.279375 24.04125 6.55875 24.0625 9.9375 C24.071604 10.97253662 24.08070801 12.00757324 24.09008789 13.07397461 C24.09258545 13.88358643 24.09508301 14.69319824 24.09765625 15.52734375 C24.10551147 16.77632446 24.10551147 16.77632446 24.11352539 18.05053711 C24 20 24 20 23 21 C19.52791193 21.25098924 16.0425938 21.18522096 12.5625 21.1875 C11.58216797 21.19974609 10.60183594 21.21199219 9.59179688 21.22460938 C8.65529297 21.22654297 7.71878906 21.22847656 6.75390625 21.23046875 C5.89095947 21.23457764 5.0280127 21.23868652 4.13891602 21.24291992 C2 21 2 21 0 19 C-0.22705078 17.02880859 -0.22705078 17.02880859 -0.1953125 14.6484375 C-0.19031738 13.88192871 -0.18532227 13.11541992 -0.18017578 12.32568359 C-0.16196777 11.35195801 -0.14375977 10.37823242 -0.125 9.375 C-0.08375 6.28125 -0.0425 3.1875 0 0 Z " fill="#465E6E" transform="translate(310,219)"/>
<path d="M0 0 C3.8026029 2.0050088 5.61790841 3.42686262 8 7 C8.59992545 11.16052196 8.43783544 14.9054114 6.875 18.8125 C3.53931703 22.70413013 0.62182097 24.76831129 -4.5 25.5 C-8.7336682 24.89519026 -10.77010591 23.78945399 -14 21 C-17.04170706 16.78085795 -17.55709879 13.21670624 -16.7578125 8.19140625 C-14.17256532 0.71551106 -7.27357947 -1.5737381 0 0 Z " fill="#FEFBFB" transform="translate(202,180)"/>
<path d="M0 0 C7.92 0 15.84 0 24 0 C24.020625 3.09375 24.04125 6.1875 24.0625 9.375 C24.071604 10.34872559 24.08070801 11.32245117 24.09008789 12.32568359 C24.09258545 13.09219238 24.09508301 13.85870117 24.09765625 14.6484375 C24.10551147 15.82672119 24.10551147 15.82672119 24.11352539 17.02880859 C24 19 24 19 23 21 C19.54173658 21.05789006 16.08359707 21.09355821 12.625 21.125 C11.64015625 21.14175781 10.6553125 21.15851563 9.640625 21.17578125 C8.69960937 21.18222656 7.75859375 21.18867188 6.7890625 21.1953125 C5.48509521 21.21102295 5.48509521 21.21102295 4.15478516 21.22705078 C2 21 2 21 0 19 C-0.22705078 17.02880859 -0.22705078 17.02880859 -0.1953125 14.6484375 C-0.19031738 13.88192871 -0.18532227 13.11541992 -0.18017578 12.32568359 C-0.16196777 11.35195801 -0.14375977 10.37823242 -0.125 9.375 C-0.08375 6.28125 -0.0425 3.1875 0 0 Z " fill="#465E6E" transform="translate(177,219)"/>
<path d="M0 0 C3.09643449 1.46205076 5.08827069 3.15855431 7 6 C8.51634979 10.40762814 8.3376348 13.88158472 7 18.3125 C3.77263272 22.64927478 0.25689448 24.63152743 -5.0625 25.5 C-9.81865449 24.69044179 -12.77187243 22.43281549 -15.875 18.8125 C-17.47182997 14.82042508 -17.70800663 11.24034403 -17 7 C-12.7555442 0.1210544 -7.68093562 -1.28983942 0 0 Z " fill="#FEFBFB" transform="translate(319,180)"/>
<path d="M0 0 C1.55170898 -0.00945648 1.55170898 -0.00945648 3.13476562 -0.019104 C4.81602539 -0.01303131 4.81602539 -0.01303131 6.53125 -0.00683594 C7.67787109 -0.00874939 8.82449219 -0.01066284 10.00585938 -0.01263428 C12.43359598 -0.01399715 14.86133984 -0.01029361 17.2890625 -0.00195312 C21.01579073 0.00874469 24.74203686 -0.00184525 28.46875 -0.01464844 C30.82291774 -0.01332686 33.17708517 -0.01076451 35.53125 -0.00683594 C36.65208984 -0.0108844 37.77292969 -0.01493286 38.92773438 -0.019104 C39.96220703 -0.01279968 40.99667969 -0.00649536 42.0625 0 C43.43245117 0.00238678 43.43245117 0.00238678 44.83007812 0.00482178 C47.03125 0.25878906 47.03125 0.25878906 49.03125 2.25878906 C49.28125 4.75878906 49.28125 4.75878906 49.03125 7.25878906 C46.48851278 9.80152628 45.58685561 9.51143786 42.0625 9.51757812 C41.02802734 9.52388245 39.99355469 9.53018677 38.92773438 9.53668213 C37.24647461 9.53060944 37.24647461 9.53060944 35.53125 9.52441406 C33.81131836 9.52728424 33.81131836 9.52728424 32.05664062 9.5302124 C29.62890402 9.53157528 27.20116016 9.52787173 24.7734375 9.51953125 C21.04670927 9.50883344 17.32046314 9.51942337 13.59375 9.53222656 C11.23958226 9.53090499 8.88541483 9.52834263 6.53125 9.52441406 C5.41041016 9.52846252 4.28957031 9.53251099 3.13476562 9.53668213 C2.10029297 9.53037781 1.06582031 9.52407349 0 9.51757812 C-0.91330078 9.51598694 -1.82660156 9.51439575 -2.76757812 9.51275635 C-4.96875 9.25878906 -4.96875 9.25878906 -6.96875 7.25878906 C-7.21875 4.75878906 -7.21875 4.75878906 -6.96875 2.25878906 C-4.42601278 -0.28394815 -3.52435561 0.00614026 0 0 Z " fill="#D45947" transform="translate(234.96875,178.7412109375)"/>
<path d="M0 0 C1.26714844 -0.01417969 2.53429687 -0.02835938 3.83984375 -0.04296875 C7.0625 0.1875 7.0625 0.1875 9.0625 2.1875 C9.3125 5.1875 9.3125 5.1875 9.0625 8.1875 C6.28440605 10.96559395 4.49494797 10.48705703 0.625 10.5 C-1.10556641 10.52513672 -1.10556641 10.52513672 -2.87109375 10.55078125 C-5.9375 10.1875 -5.9375 10.1875 -7.86328125 8.86328125 C-8.9375 7.1875 -8.9375 7.1875 -8.6875 4.0625 C-7.3345604 -1.12376848 -5.03012881 0.02553365 0 0 Z " fill="#3D484E" transform="translate(178.9375,139.8125)"/>
<path d="M0 0 C1.73056641 -0.02513672 1.73056641 -0.02513672 3.49609375 -0.05078125 C6.5625 0.3125 6.5625 0.3125 8.484375 1.671875 C9.5625 3.3125 9.5625 3.3125 9.375 5.875 C8.5625 8.3125 8.5625 8.3125 6.5625 10.3125 C3.59375 10.578125 3.59375 10.578125 0.0625 10.5625 C-1.1028125 10.56765625 -2.268125 10.5728125 -3.46875 10.578125 C-6.4375 10.3125 -6.4375 10.3125 -8.4375 8.3125 C-8.6875 5.3125 -8.6875 5.3125 -8.4375 2.3125 C-5.65940605 -0.46559395 -3.86994797 0.01294297 0 0 Z " fill="#3C474D" transform="translate(332.4375,139.6875)"/>
</svg>
